<mxfile host="Electron" modified="2025-02-10T20:31:09.434Z" agent="Mozilla/5.0 (X11; Linux x86_64) AppleWebKit/537.36 (KHTML, like Gecko) draw.io/22.1.2 Chrome/114.0.5735.289 Electron/25.9.4 Safari/537.36" etag="GgXmRqAVtykjEBA5kb5G" version="22.1.2" type="device">
  <diagram name="Page-1" id="Pt6lSjgaOLtSA_UPg8UX">
    <mxGraphModel dx="644" dy="563" grid="1" gridSize="10" guides="1" tooltips="1" connect="1" arrows="1" fold="1" page="1" pageScale="1" pageWidth="583" pageHeight="413" math="0" shadow="0">
      <root>
        <mxCell id="0" />
        <mxCell id="1" parent="0" />
        <mxCell id="7Jdy4RsstKiCpLWwKZQY-1" value="Action Client" style="shape=umlLifeline;perimeter=lifelinePerimeter;whiteSpace=wrap;html=1;container=1;dropTarget=0;collapsible=0;recursiveResize=0;outlineConnect=0;portConstraint=eastwest;newEdgeStyle={&quot;edgeStyle&quot;:&quot;elbowEdgeStyle&quot;,&quot;elbow&quot;:&quot;vertical&quot;,&quot;curved&quot;:0,&quot;rounded&quot;:0};fontSize=14;" vertex="1" parent="1">
          <mxGeometry x="109" y="50" width="100" height="280" as="geometry" />
        </mxCell>
        <mxCell id="7Jdy4RsstKiCpLWwKZQY-3" value="" style="html=1;points=[[0,0,0,0,5],[0,1,0,0,-5],[1,0,0,0,5],[1,1,0,0,-5]];perimeter=orthogonalPerimeter;outlineConnect=0;targetShapes=umlLifeline;portConstraint=eastwest;newEdgeStyle={&quot;curved&quot;:0,&quot;rounded&quot;:0};fontSize=14;" vertex="1" parent="7Jdy4RsstKiCpLWwKZQY-1">
          <mxGeometry x="45" y="60" width="10" height="30" as="geometry" />
        </mxCell>
        <mxCell id="7Jdy4RsstKiCpLWwKZQY-9" value="" style="html=1;points=[[0,0,0,0,5],[0,1,0,0,-5],[1,0,0,0,5],[1,1,0,0,-5]];perimeter=orthogonalPerimeter;outlineConnect=0;targetShapes=umlLifeline;portConstraint=eastwest;newEdgeStyle={&quot;curved&quot;:0,&quot;rounded&quot;:0};fontSize=14;" vertex="1" parent="7Jdy4RsstKiCpLWwKZQY-1">
          <mxGeometry x="45" y="243" width="10" height="30" as="geometry" />
        </mxCell>
        <mxCell id="7Jdy4RsstKiCpLWwKZQY-14" value="" style="html=1;points=[[0,0,0,0,5],[0,1,0,0,-5],[1,0,0,0,5],[1,1,0,0,-5]];perimeter=orthogonalPerimeter;outlineConnect=0;targetShapes=umlLifeline;portConstraint=eastwest;newEdgeStyle={&quot;curved&quot;:0,&quot;rounded&quot;:0};dashed=1;fontSize=14;" vertex="1" parent="7Jdy4RsstKiCpLWwKZQY-1">
          <mxGeometry x="45" y="110" width="10" height="120" as="geometry" />
        </mxCell>
        <mxCell id="7Jdy4RsstKiCpLWwKZQY-2" value="Action Server" style="shape=umlLifeline;perimeter=lifelinePerimeter;whiteSpace=wrap;html=1;container=1;dropTarget=0;collapsible=0;recursiveResize=0;outlineConnect=0;portConstraint=eastwest;newEdgeStyle={&quot;edgeStyle&quot;:&quot;elbowEdgeStyle&quot;,&quot;elbow&quot;:&quot;vertical&quot;,&quot;curved&quot;:0,&quot;rounded&quot;:0};fontSize=14;" vertex="1" parent="1">
          <mxGeometry x="390" y="50" width="100" height="280" as="geometry" />
        </mxCell>
        <mxCell id="7Jdy4RsstKiCpLWwKZQY-4" value="" style="html=1;points=[[0,0,0,0,5],[0,1,0,0,-5],[1,0,0,0,5],[1,1,0,0,-5]];perimeter=orthogonalPerimeter;outlineConnect=0;targetShapes=umlLifeline;portConstraint=eastwest;newEdgeStyle={&quot;curved&quot;:0,&quot;rounded&quot;:0};fontSize=14;" vertex="1" parent="7Jdy4RsstKiCpLWwKZQY-2">
          <mxGeometry x="45" y="60" width="10" height="30" as="geometry" />
        </mxCell>
        <mxCell id="7Jdy4RsstKiCpLWwKZQY-7" value="" style="html=1;points=[[0,0,0,0,5],[0,1,0,0,-5],[1,0,0,0,5],[1,1,0,0,-5]];perimeter=orthogonalPerimeter;outlineConnect=0;targetShapes=umlLifeline;portConstraint=eastwest;newEdgeStyle={&quot;curved&quot;:0,&quot;rounded&quot;:0};fontSize=14;" vertex="1" parent="7Jdy4RsstKiCpLWwKZQY-2">
          <mxGeometry x="45" y="110" width="10" height="120" as="geometry" />
        </mxCell>
        <mxCell id="7Jdy4RsstKiCpLWwKZQY-5" value="Goal" style="edgeStyle=orthogonalEdgeStyle;rounded=0;orthogonalLoop=1;jettySize=auto;html=1;curved=0;exitX=1;exitY=0;exitDx=0;exitDy=5;exitPerimeter=0;entryX=0;entryY=0;entryDx=0;entryDy=5;entryPerimeter=0;fontSize=14;" edge="1" parent="1" source="7Jdy4RsstKiCpLWwKZQY-3" target="7Jdy4RsstKiCpLWwKZQY-4">
          <mxGeometry relative="1" as="geometry" />
        </mxCell>
        <mxCell id="7Jdy4RsstKiCpLWwKZQY-6" value="Response" style="edgeStyle=orthogonalEdgeStyle;rounded=0;orthogonalLoop=1;jettySize=auto;html=1;curved=0;exitX=0;exitY=1;exitDx=0;exitDy=-5;exitPerimeter=0;entryX=1;entryY=1;entryDx=0;entryDy=-5;entryPerimeter=0;fontSize=14;" edge="1" parent="1" source="7Jdy4RsstKiCpLWwKZQY-4" target="7Jdy4RsstKiCpLWwKZQY-3">
          <mxGeometry relative="1" as="geometry" />
        </mxCell>
        <mxCell id="7Jdy4RsstKiCpLWwKZQY-8" value="" style="html=1;points=[[0,0,0,0,5],[0,1,0,0,-5],[1,0,0,0,5],[1,1,0,0,-5]];perimeter=orthogonalPerimeter;outlineConnect=0;targetShapes=umlLifeline;portConstraint=eastwest;newEdgeStyle={&quot;curved&quot;:0,&quot;rounded&quot;:0};fontSize=14;" vertex="1" parent="1">
          <mxGeometry x="435" y="293" width="10" height="7" as="geometry" />
        </mxCell>
        <mxCell id="7Jdy4RsstKiCpLWwKZQY-10" value="Result" style="edgeStyle=orthogonalEdgeStyle;rounded=0;orthogonalLoop=1;jettySize=auto;html=1;curved=0;exitX=0;exitY=0;exitDx=0;exitDy=5;exitPerimeter=0;entryX=1;entryY=0;entryDx=0;entryDy=5;entryPerimeter=0;fontSize=14;" edge="1" parent="1" source="7Jdy4RsstKiCpLWwKZQY-8" target="7Jdy4RsstKiCpLWwKZQY-9">
          <mxGeometry relative="1" as="geometry" />
        </mxCell>
        <mxCell id="7Jdy4RsstKiCpLWwKZQY-17" style="edgeStyle=orthogonalEdgeStyle;rounded=0;orthogonalLoop=1;jettySize=auto;html=1;exitX=0.16;exitY=0.55;exitDx=0;exitDy=0;exitPerimeter=0;dashed=1;fontSize=14;" edge="1" parent="1" source="7Jdy4RsstKiCpLWwKZQY-11" target="7Jdy4RsstKiCpLWwKZQY-1">
          <mxGeometry relative="1" as="geometry">
            <Array as="points">
              <mxPoint x="210" y="224" />
              <mxPoint x="210" y="224" />
            </Array>
          </mxGeometry>
        </mxCell>
        <mxCell id="7Jdy4RsstKiCpLWwKZQY-11" value="Feedback&lt;br style=&quot;font-size: 14px;&quot;&gt;Topic" style="ellipse;shape=cloud;whiteSpace=wrap;html=1;fontSize=14;" vertex="1" parent="1">
          <mxGeometry x="240" y="180" width="120" height="80" as="geometry" />
        </mxCell>
        <mxCell id="7Jdy4RsstKiCpLWwKZQY-16" style="edgeStyle=orthogonalEdgeStyle;rounded=0;orthogonalLoop=1;jettySize=auto;html=1;curved=0;entryX=0.875;entryY=0.5;entryDx=0;entryDy=0;entryPerimeter=0;fontSize=14;" edge="1" parent="1" source="7Jdy4RsstKiCpLWwKZQY-7" target="7Jdy4RsstKiCpLWwKZQY-11">
          <mxGeometry relative="1" as="geometry" />
        </mxCell>
      </root>
    </mxGraphModel>
  </diagram>
</mxfile>
